<?xml version="1.0" encoding="utf-8"?>
<!-- Svg Vector Icons : http://www.onlinewebfonts.com/icon -->
<!DOCTYPE svg PUBLIC "-//W3C//DTD SVG 1.1//EN" "http://www.w3.org/Graphics/SVG/1.1/DTD/svg11.dtd">
<svg version="1.1" xmlns="http://www.w3.org/2000/svg" xmlns:xlink="http://www.w3.org/1999/xlink" x="0px" y="0px" viewBox="0 0 1000 1000" enable-background="new 0 0 1000 1000" xml:space="preserve">
<metadata> Svg Vector Icons : http://www.onlinewebfonts.com/icon </metadata>
<g><g transform="translate(0.000000,511.000000) scale(0.100000,-0.100000)"><path d="M943.2,3240.1c-34.6-25-82.7-69.2-103.8-98l-40.4-53.8V546.5v-2541.8h4201h4201l5.8,2470.6c3.8,1732.3,0,2499.5-15.4,2568.7c-21.2,98.1-76.9,171.1-167.3,217.3c-30.7,15.4-1119,21.2-4029.9,21.2H1006.6L943.2,3240.1z M8826.1,609.9v-2307.2H5000H1173.9V609.9v2307.2H5000h3826.1V609.9z"/><path d="M452.9-2433.7l-346.1-255.7L101-2824c-3.8-113.4,1.9-144.2,34.6-186.5l40.4-51.9h4824h4824l40.4,51.9c32.7,42.3,38.5,73.1,34.6,186.5l-5.8,134.6l-346.1,255.7L9201-2178H5000H799L452.9-2433.7z M5688.3-2768.2l-5.8-73H5000h-682.5l-5.8,73l-5.8,71.2H5000h694.1L5688.3-2768.2z"/></g></g>
</svg>